# xmcd
#
# Track frame offsets:
#	150
#	21802
#	38413
#	59343
#	76345
#	98341
#	117884
#	135353
#	155227
#	175588
#	194623
#	210203
#	227200
#
# Disc length: 3341 seconds
#
# Revision: 2
# Processed by: cddbd v1.5.2PL0 Copyright (c) Steve Scherf et al.
# Submitted via: EasyCDDAExtractor 15.3.0.1
#
DISCID=990d0b0d
DTITLE=Alejandro Sanz - La Musica No Se Toca
DYEAR=2012
DGENRE=Latin
TTITLE0=La Musica No Se Toca
TTITLE1=Yo Te Traigo... 20 Años
TTITLE2=No Me Compares
TTITLE3=Llamando A La Mujer Accion
TTITLE4=Mi Marciana
TTITLE5=Camino De Rosas
TTITLE6=Se Vende
TTITLE7=Como Decir Sin Andar Diciendo
TTITLE8=Camino A Casa
TTITLE9=Nena
TTITLE10=Bailo Con Vos
TTITLE11=Me Sumerjo
TTITLE12=Para Decirle Adios
EXTD=YEAR: 2012
EXTT0=
EXTT1=
EXTT2=
EXTT3=
EXTT4=
EXTT5=
EXTT6=
EXTT7=
EXTT8=
EXTT9=
EXTT10=
EXTT11=
EXTT12=
PLAYORDER=
